<svg width="149" height="32" viewBox="0 0 149 32" fill="none" xmlns="http://www.w3.org/2000/svg">
<path d="M7.5205 26.1764C6.55143 25.1946 6.55143 23.6025 7.5205 22.6207L9.25163 20.8666L14.5168 26.3578L11.2232 27.2119L7.5205 26.1764Z" fill="url(#paint0_linear_8_2984)"/>
<path d="M0.454364 19.2081C-0.151455 18.5942 -0.151455 17.5988 0.454364 16.985L2.89466 14.5124L7.9312 19.6155L0.454364 19.2081Z" fill="url(#paint1_linear_8_2984)"/>
<path d="M32.2487 17.8412L19.0259 31.2389C18.0209 32.2537 16.3962 32.2537 15.3916 31.2389L2.16874 17.8412C1.16714 16.823 1.16714 15.1767 2.16874 14.1588L15.3916 0.761128C16.3965 -0.253709 18.0212 -0.253709 19.0259 0.761128L32.2487 14.1588C33.2503 15.1767 33.2503 16.823 32.2487 17.8412Z" fill="url(#paint2_linear_8_2984)"/>
<path opacity="0.28" d="M31.4231 14.2545C28.911 15.4844 25.1232 15.9833 19.7368 13.5471C12.9312 10.473 6.46169 12.7241 2.28571 15.104C2.37386 14.9321 2.48785 14.7701 2.63163 14.6248L15.8511 1.22706C16.2132 0.863323 16.6962 0.661896 17.2084 0.661896C17.7206 0.661896 18.2033 0.863631 18.5656 1.23045L31.4231 14.2545Z" fill="url(#paint3_linear_8_2984)"/>
<g opacity="0.44">
<path d="M26.5029 17.3286L24.5812 24.6043L23.4784 22.7302L20.066 26.1911C19.2699 26.9944 18.3923 27.6886 17.4494 28.2571C16.2225 29.0009 14.8492 29.3413 13.4886 29.3117L11.1884 26.9811C13.7102 26.8388 16.0559 25.7812 17.857 23.9566L21.3347 20.4363L19.1814 19.1307L26.5029 17.3286Z" fill="url(#paint4_linear_8_2984)"/>
<path d="M22.6445 8.66818L20.3868 17.2165L19.0883 15.015L15.0786 19.0743C14.201 19.9635 13.2353 20.7372 12.2075 21.3818C10.5959 22.3899 8.77233 22.8232 6.97767 22.7139L4.3252 20.0263C7.39198 19.9306 10.312 18.6579 12.4878 16.453L16.5659 12.3176L14.0408 10.7872L22.6445 8.66818Z" fill="url(#paint5_linear_8_2984)"/>
</g>
<path d="M25.8528 16.5042L23.9311 23.7799L22.8252 21.9058L19.4128 25.3633C18.6173 26.1694 17.7394 26.8611 16.7983 27.4312C13.8136 29.2388 9.97959 28.6678 7.52106 26.1764H9.94494C12.6886 26.1764 15.266 25.0954 17.2072 23.1285L20.6816 19.6113L18.5316 18.3057L25.8528 16.5042Z" fill="url(#paint6_linear_8_2984)"/>
<path d="M21.9934 7.84L19.7358 16.3917L18.4342 14.1868L14.4245 18.2495C13.5469 19.1387 12.5839 19.9102 11.5544 20.5558C8.00699 22.7807 3.40453 22.1971 0.454468 19.208H3.3027C6.50293 19.208 9.57215 17.92 11.8349 15.627L15.9152 11.4925L13.3901 9.96207L21.9934 7.84Z" fill="url(#paint7_linear_8_2984)"/>
<g opacity="0.5">
<path opacity="0.78" d="M25.3939 16.9555L24.0923 21.8874C23.1233 21.1602 22.0533 20.4792 20.8918 19.8645L21.2082 19.5472L19.3813 18.4366L25.3939 16.9555Z" fill="url(#paint8_linear_8_2984)"/>
<path opacity="0.78" d="M21.5343 8.29463L19.6192 15.5503L18.497 13.6528L14.742 17.4608C13.848 17.2163 12.9282 17.0081 11.9852 16.8359C11.708 16.7863 11.4305 16.7401 11.1566 16.697C11.4697 16.4358 11.7734 16.1549 12.0637 15.8608L16.4418 11.4278L14.2395 10.0924L21.5343 8.29463Z" fill="url(#paint9_linear_8_2984)"/>
</g>
<path d="M37.6457 25.152H39.6057V9.304H37.6457V7.456H46.1017V9.304H44.1417V15.94H51.5897V9.304H49.6297V7.456H58.0857V9.304H56.1257V25.152H58.0857V27H49.6297V25.152H51.5897V17.956H44.1417V25.152H46.1017V27H37.6457V25.152ZM67.3683 25.32C69.0857 25.32 69.9443 24.2933 69.9443 22.24V17.088C69.9443 15.0347 69.0857 14.008 67.3683 14.008C65.651 14.008 64.7923 15.0347 64.7923 17.088V22.24C64.7923 24.2933 65.651 25.32 67.3683 25.32ZM67.3683 27.336C66.3043 27.336 65.3337 27.168 64.4563 26.832C63.5977 26.4773 62.851 25.9733 62.2163 25.32C61.6003 24.6667 61.1243 23.864 60.7883 22.912C60.4523 21.96 60.2843 20.8773 60.2843 19.664C60.2843 18.4507 60.4523 17.368 60.7883 16.416C61.1243 15.464 61.6003 14.6613 62.2163 14.008C62.851 13.3547 63.5977 12.86 64.4563 12.524C65.3337 12.1693 66.3043 11.992 67.3683 11.992C68.4323 11.992 69.3937 12.1693 70.2523 12.524C71.1297 12.86 71.8763 13.3547 72.4923 14.008C73.127 14.6613 73.6123 15.464 73.9483 16.416C74.2843 17.368 74.4523 18.4507 74.4523 19.664C74.4523 20.8773 74.2843 21.96 73.9483 22.912C73.6123 23.864 73.127 24.6667 72.4923 25.32C71.8763 25.9733 71.1297 26.4773 70.2523 26.832C69.3937 27.168 68.4323 27.336 67.3683 27.336ZM76.5532 25.152H78.2332V15.156L76.5532 14.792V13.196L82.4052 11.992V14.764H82.5172C82.7785 13.98 83.1985 13.3267 83.7772 12.804C84.3559 12.2627 85.1119 11.992 86.0452 11.992C86.9599 11.992 87.6785 12.244 88.2012 12.748C88.7239 13.2333 88.9852 13.9053 88.9852 14.764C88.9852 15.5107 88.7892 16.0987 88.3972 16.528C88.0052 16.9573 87.4545 17.172 86.7452 17.172C86.0732 17.172 85.5599 16.9947 85.2052 16.64C84.8505 16.2667 84.6732 15.828 84.6732 15.324C84.6732 15.1 84.7199 14.8947 84.8132 14.708C84.9065 14.5213 85.0185 14.4 85.1492 14.344L85.1212 14.204C85.0652 14.1853 84.9812 14.176 84.8692 14.176C84.5705 14.176 84.2812 14.26 84.0012 14.428C83.7212 14.596 83.4692 14.8107 83.2452 15.072C83.0212 15.3333 82.8345 15.6227 82.6852 15.94C82.5545 16.2573 82.4892 16.5653 82.4892 16.864V25.152H84.7292V27H76.5532V25.152ZM94.1418 10.396C93.3578 10.396 92.7418 10.1813 92.2938 9.752C91.8645 9.32267 91.6498 8.744 91.6498 8.016V7.876C91.6498 7.148 91.8645 6.56933 92.2938 6.14C92.7418 5.71067 93.3578 5.496 94.1418 5.496C94.9258 5.496 95.5325 5.71067 95.9618 6.14C96.4098 6.56933 96.6338 7.148 96.6338 7.876V8.016C96.6338 8.744 96.4098 9.32267 95.9618 9.752C95.5325 10.1813 94.9258 10.396 94.1418 10.396ZM90.3618 25.152H92.0418V15.156L90.3618 14.792V13.196L96.2978 11.992V25.152H97.9778V27H90.3618V25.152ZM99.5727 25.264L107.021 14.288H102.541V16.696H99.7967V12.328H112.005V14.176L104.557 25.04H109.485V22.632H112.229V27H99.5727V25.264ZM120.88 25.32C122.597 25.32 123.456 24.2933 123.456 22.24V17.088C123.456 15.0347 122.597 14.008 120.88 14.008C119.163 14.008 118.304 15.0347 118.304 17.088V22.24C118.304 24.2933 119.163 25.32 120.88 25.32ZM120.88 27.336C119.816 27.336 118.845 27.168 117.968 26.832C117.109 26.4773 116.363 25.9733 115.728 25.32C115.112 24.6667 114.636 23.864 114.3 22.912C113.964 21.96 113.796 20.8773 113.796 19.664C113.796 18.4507 113.964 17.368 114.3 16.416C114.636 15.464 115.112 14.6613 115.728 14.008C116.363 13.3547 117.109 12.86 117.968 12.524C118.845 12.1693 119.816 11.992 120.88 11.992C121.944 11.992 122.905 12.1693 123.764 12.524C124.641 12.86 125.388 13.3547 126.004 14.008C126.639 14.6613 127.124 15.464 127.46 16.416C127.796 17.368 127.964 18.4507 127.964 19.664C127.964 20.8773 127.796 21.96 127.46 22.912C127.124 23.864 126.639 24.6667 126.004 25.32C125.388 25.9733 124.641 26.4773 123.764 26.832C122.905 27.168 121.944 27.336 120.88 27.336ZM130.065 25.152H131.745V15.156L130.065 14.792V13.196L135.917 11.992V14.764H136.057C136.318 14.0173 136.785 13.3733 137.457 12.832C138.129 12.272 139.053 11.992 140.229 11.992C142.021 11.992 143.281 12.4493 144.009 13.364C144.756 14.26 145.129 15.6133 145.129 17.424V25.152H146.809V27H139.333V25.152H140.873V17.564C140.873 16.5747 140.696 15.8747 140.341 15.464C140.005 15.0347 139.426 14.82 138.605 14.82C138.288 14.82 137.97 14.8667 137.653 14.96C137.336 15.0347 137.056 15.1653 136.813 15.352C136.57 15.52 136.374 15.744 136.225 16.024C136.076 16.2853 136.001 16.612 136.001 17.004V25.152H137.541V27H130.065V25.152Z" fill="#00214F"/>
<defs>
<linearGradient id="paint0_linear_8_2984" x1="6.79367" y1="24.0391" x2="14.5168" y2="24.0391" gradientUnits="userSpaceOnUse">
<stop stop-color="#B0D1FF"/>
<stop offset="1" stop-color="#4F93FF"/>
</linearGradient>
<linearGradient id="paint1_linear_8_2984" x1="-0.000106391" y1="17.064" x2="7.93108" y2="17.064" gradientUnits="userSpaceOnUse">
<stop stop-color="#B0D1FF"/>
<stop offset="1" stop-color="#4F93FF"/>
</linearGradient>
<linearGradient id="paint2_linear_8_2984" x1="17.0874" y1="28.9622" x2="17.4224" y2="-5.91041" gradientUnits="userSpaceOnUse">
<stop stop-color="#0058D4"/>
<stop offset="1" stop-color="#00245B"/>
</linearGradient>
<linearGradient id="paint3_linear_8_2984" x1="16.9431" y1="7.10729" x2="16.8314" y2="16.4181" gradientUnits="userSpaceOnUse">
<stop/>
<stop offset="1" stop-color="#B0D1FF"/>
</linearGradient>
<linearGradient id="paint4_linear_8_2984" x1="11.189" y1="23.3211" x2="26.5031" y2="23.3211" gradientUnits="userSpaceOnUse">
<stop stop-color="#001334"/>
<stop offset="1" stop-color="#00245B"/>
</linearGradient>
<linearGradient id="paint5_linear_8_2984" x1="4.32556" y1="15.6991" x2="22.6443" y2="15.6991" gradientUnits="userSpaceOnUse">
<stop stop-color="#001334"/>
<stop offset="1" stop-color="#00245B"/>
</linearGradient>
<linearGradient id="paint6_linear_8_2984" x1="7.52103" y1="22.496" x2="25.8529" y2="22.496" gradientUnits="userSpaceOnUse">
<stop stop-color="#0065FF"/>
<stop offset="1" stop-color="#00C4F7"/>
</linearGradient>
<linearGradient id="paint7_linear_8_2984" x1="0.454711" y1="14.872" x2="21.9935" y2="14.872" gradientUnits="userSpaceOnUse">
<stop stop-color="#0065FF"/>
<stop offset="1" stop-color="#00C4F7"/>
</linearGradient>
<linearGradient id="paint8_linear_8_2984" x1="23.494" y1="17.2036" x2="19.8911" y2="23.1118" gradientUnits="userSpaceOnUse">
<stop/>
<stop offset="1" stop-color="#B0D1FF"/>
</linearGradient>
<linearGradient id="paint9_linear_8_2984" x1="16.5231" y1="13.351" x2="12.2675" y2="18.7511" gradientUnits="userSpaceOnUse">
<stop/>
<stop offset="1" stop-color="#B0D1FF"/>
</linearGradient>
</defs>
</svg>
